<svg width="80" height="80" viewBox="0 0 80 80" fill="none" xmlns="http://www.w3.org/2000/svg">
<path fill-rule="evenodd" clip-rule="evenodd" d="M69.1 23.7332L68.6333 22.8998C68.0313 21.8921 67.1823 21.0546 66.1666 20.4665L43.8 7.5665C42.7873 6.979 41.6377 6.66857 40.4667 6.6665H39.5C38.329 6.66857 37.1793 6.979 36.1667 7.5665L13.8 20.4998C12.7899 21.084 11.9509 21.9231 11.3667 22.9332L10.9 23.7665C10.3125 24.7793 10.0021 25.929 10 27.0998V52.9332C10.0021 54.1042 10.3125 55.2538 10.9 56.2665L11.3667 57.0998C11.966 58.0982 12.8016 58.9338 13.8 59.5332L36.2 72.4332C37.2077 73.0328 38.3607 73.3442 39.5333 73.3332H40.4667C41.6377 73.3312 42.7873 73.0208 43.8 72.4332L66.1666 59.4998C67.1866 58.9288 68.029 58.0865 68.6 57.0665L69.1 56.2332C69.6803 55.2175 69.9903 54.0698 70 52.8998V27.0665C69.998 25.8956 69.6876 24.746 69.1 23.7332ZM39.5 13.3332H40.4667L60 24.5998L40 36.1332L20 24.5998L39.5 13.3332ZM43.3333 64.9998L62.8333 53.7332L63.3333 52.8998V30.3665L43.3333 41.9332V64.9998Z" fill="black"/>
</svg>
