<svg width="151" height="27" viewBox="0 0 151 27" fill="none" xmlns="http://www.w3.org/2000/svg">
<g clip-path="url(#clip0_0_63)">
<path d="M0.564453 21.0005H13.2485V17.4445H5.10045V0.980469H0.564453V21.0005Z" fill="black"/>
<path d="M21.587 18.2275C19.291 18.2275 18.003 16.5475 18.003 13.7475V13.5235C18.003 10.7235 19.347 9.09953 21.587 9.09953C23.855 9.09953 25.171 10.7795 25.171 13.5795V13.7755C25.171 16.5475 23.855 18.2275 21.587 18.2275ZM21.559 21.3075C25.955 21.3075 29.287 18.3675 29.287 13.7475V13.5235C29.287 8.95953 25.983 6.01953 21.587 6.01953C17.191 6.01953 13.859 9.01553 13.859 13.6075V13.8315C13.859 18.3955 17.191 21.3075 21.559 21.3075Z" fill="black"/>
<path d="M37.6649 26.4035C42.4809 26.4035 45.3649 24.1915 45.3929 19.8515V6.35553H41.3609V8.53953C40.5209 7.05553 39.0929 6.01953 36.7129 6.01953C33.0729 6.01953 30.2729 8.95953 30.2729 13.1595V13.3555C30.2729 17.6955 33.1009 20.3555 36.6569 20.3555C38.8129 20.3555 40.5489 19.0675 41.3609 17.6395V19.8515C41.3609 22.1475 40.1289 23.4355 37.6649 23.4355C35.5929 23.4355 34.6689 22.5955 34.4169 21.3075H30.3849C30.7769 24.3315 32.9329 26.4035 37.6649 26.4035ZM37.8609 17.3035C35.8449 17.3035 34.4169 15.7915 34.4169 13.3555V13.1315C34.4169 10.7235 35.6769 9.09953 37.9449 9.09953C40.1569 9.09953 41.4729 10.6115 41.4729 13.1035V13.2995C41.4729 15.7915 39.9889 17.3035 37.8609 17.3035Z" fill="black"/>
<path d="M54.9617 18.2275C52.6657 18.2275 51.3777 16.5475 51.3777 13.7475V13.5235C51.3777 10.7235 52.7217 9.09953 54.9617 9.09953C57.2297 9.09953 58.5457 10.7795 58.5457 13.5795V13.7755C58.5457 16.5475 57.2297 18.2275 54.9617 18.2275ZM54.9337 21.3075C59.3297 21.3075 62.6617 18.3675 62.6617 13.7475V13.5235C62.6617 8.95953 59.3577 6.01953 54.9617 6.01953C50.5657 6.01953 47.2337 9.01553 47.2337 13.6075V13.8315C47.2337 18.3955 50.5657 21.3075 54.9337 21.3075Z" fill="black"/>
</g>
<defs>
<clipPath id="clip0_0_63">
<rect width="63" height="27" fill="white"/>
</clipPath>
</defs>
</svg>
